<?xml version="1.0" encoding="UTF-8" standalone="no"?>
<!DOCTYPE svg PUBLIC "-//W3C//DTD SVG 1.1//EN"
 "http://www.w3.org/Graphics/SVG/1.1/DTD/svg11.dtd">
<!-- Generated by graphviz version 2.43.0 (0)
 -->
<!-- Title: G Pages: 1 -->
<svg width="720pt" height="964pt"
 viewBox="0.00 0.00 720.00 964.00" xmlns="http://www.w3.org/2000/svg" xmlns:xlink="http://www.w3.org/1999/xlink">
<g id="graph0" class="graph" transform="scale(1 1) rotate(0) translate(4 960)">
<title>G</title>
<polygon fill="white" stroke="transparent" points="-4,4 -4,-960 716,-960 716,4 -4,4"/>
<g id="clust1" class="cluster">
<title>cluster_root</title>
<g id="a_clust1"><a xlink:title="eventq_index=0&#10;full_system=false&#10;sim_quantum=0&#10;time_sync_enable=false&#10;time_sync_period=100000000000&#10;time_sync_spin_threshold=100000000">
<path fill="#bab6ae" stroke="#000000" d="M20,-8C20,-8 692,-8 692,-8 698,-8 704,-14 704,-20 704,-20 704,-936 704,-936 704,-942 698,-948 692,-948 692,-948 20,-948 20,-948 14,-948 8,-942 8,-936 8,-936 8,-20 8,-20 8,-14 14,-8 20,-8"/>
<text text-anchor="middle" x="356" y="-932.8" font-family="Arial" font-size="14.00" fill="#000000">root </text>
<text text-anchor="middle" x="356" y="-917.8" font-family="Arial" font-size="14.00" fill="#000000">: Root</text>
</a>
</g>
</g>
<g id="clust2" class="cluster">
<title>cluster_system</title>
<g id="a_clust2"><a xlink:title="auto_unlink_shared_backstore=false&#10;cache_line_size=64&#10;eventq_index=0&#10;exit_on_work_items=false&#10;external_memory_ranges=&#10;init_param=0&#10;m5ops_base=0&#10;mem_mode=timing&#10;mem_ranges=0:536870912&#10;memories=system.mem_ctrl.dram&#10;mmap_using_noreserve=false&#10;multi_thread=false&#10;&#10;um_work_ids=16&#10;&#13;eadfile=&#10;&#13;edirect_paths=&#10;shadow_rom_ranges=&#10;shared_backstore=&#10;symbolfile=&#10;thermal_components=&#10;thermal_model=Null&#10;work_begin_ckpt_count=0&#10;work_begin_cpu_id_exit=&#45;1&#10;work_begin_exit_count=0&#10;work_cpus_ckpt_count=0&#10;work_end_ckpt_count=0&#10;work_end_exit_count=0&#10;work_item_id=&#45;1&#10;workload=system.workload">
<path fill="#e4e7eb" stroke="#000000" d="M28,-16C28,-16 684,-16 684,-16 690,-16 696,-22 696,-28 696,-28 696,-890 696,-890 696,-896 690,-902 684,-902 684,-902 28,-902 28,-902 22,-902 16,-896 16,-890 16,-890 16,-28 16,-28 16,-22 22,-16 28,-16"/>
<text text-anchor="middle" x="356" y="-886.8" font-family="Arial" font-size="14.00" fill="#000000">system </text>
<text text-anchor="middle" x="356" y="-871.8" font-family="Arial" font-size="14.00" fill="#000000">: System</text>
</a>
</g>
</g>
<g id="clust6" class="cluster">
<title>cluster_system_cpu</title>
<g id="a_clust6"><a xlink:title="branchPred=Null&#10;checker=Null&#10;clk_domain=system.clk_domain&#10;cpu_id=&#45;1&#10;decoder=system.cpu.decoder&#10;do_checkpoint_insts=true&#10;do_statistics_insts=true&#10;eventq_index=0&#10;function_trace=false&#10;function_trace_start=0&#10;interrupts=system.cpu.interrupts&#10;isa=system.cpu.isa&#10;max_insts_all_threads=0&#10;max_insts_any_thread=0&#10;mmu=system.cpu.mmu&#10;&#10;umThreads=1&#10;power_gating_on_idle=false&#10;power_model=&#10;power_state=system.cpu.power_state&#10;progress_interval=0&#10;pwr_gating_latency=300&#10;simpoint_start_insts=&#10;socket_id=0&#10;switched_out=false&#10;syscallRetryLatency=10000&#10;system=system&#10;tracer=system.cpu.tracer&#10;workload=system.cpu.workload">
<path fill="#bbc6d9" stroke="#000000" d="M304,-24C304,-24 676,-24 676,-24 682,-24 688,-30 688,-36 688,-36 688,-240 688,-240 688,-246 682,-252 676,-252 676,-252 304,-252 304,-252 298,-252 292,-246 292,-240 292,-240 292,-36 292,-36 292,-30 298,-24 304,-24"/>
<text text-anchor="middle" x="490" y="-236.8" font-family="Arial" font-size="14.00" fill="#000000">cpu </text>
<text text-anchor="middle" x="490" y="-221.8" font-family="Arial" font-size="14.00" fill="#000000">: RiscvTimingSimpleCPU</text>
</a>
</g>
</g>
<g id="clust19" class="cluster">
<title>cluster_system_cpu_icache</title>
<g id="a_clust19"><a xlink:title="addr_ranges=0:18446744073709551615&#10;assoc=2&#10;clk_domain=system.clk_domain&#10;clusivity=mostly_incl&#10;compressor=Null&#10;data_latency=2&#10;demand_mshr_reserve=1&#10;eventq_index=0&#10;is_read_only=false&#10;max_miss_count=0&#10;move_contractions=true&#10;mshrs=4&#10;partitioning_manager=Null&#10;power_model=&#10;power_state=system.cpu.icache.power_state&#10;prefetcher=Null&#10;&#13;eplace_expansions=true&#10;&#13;eplacement_policy=system.cpu.icache.replacement_policy&#10;&#13;esponse_latency=2&#10;sequential_access=false&#10;size=16384&#10;system=system&#10;tag_latency=2&#10;tags=system.cpu.icache.tags&#10;tgts_per_mshr=20&#10;warmup_percentage=0&#10;write_allocator=Null&#10;write_buffers=8&#10;writeback_clean=false">
<path fill="#bab6ae" stroke="#000000" d="M506,-32C506,-32 668,-32 668,-32 674,-32 680,-38 680,-44 680,-44 680,-110 680,-110 680,-116 674,-122 668,-122 668,-122 506,-122 506,-122 500,-122 494,-116 494,-110 494,-110 494,-44 494,-44 494,-38 500,-32 506,-32"/>
<text text-anchor="middle" x="587" y="-106.8" font-family="Arial" font-size="14.00" fill="#000000">icache </text>
<text text-anchor="middle" x="587" y="-91.8" font-family="Arial" font-size="14.00" fill="#000000">: Cache</text>
</a>
</g>
</g>
<g id="clust25" class="cluster">
<title>cluster_system_cpu_dcache</title>
<g id="a_clust25"><a xlink:title="addr_ranges=0:18446744073709551615&#10;assoc=2&#10;clk_domain=system.clk_domain&#10;clusivity=mostly_incl&#10;compressor=Null&#10;data_latency=2&#10;demand_mshr_reserve=1&#10;eventq_index=0&#10;is_read_only=false&#10;max_miss_count=0&#10;move_contractions=true&#10;mshrs=4&#10;partitioning_manager=Null&#10;power_model=&#10;power_state=system.cpu.dcache.power_state&#10;prefetcher=Null&#10;&#13;eplace_expansions=true&#10;&#13;eplacement_policy=system.cpu.dcache.replacement_policy&#10;&#13;esponse_latency=2&#10;sequential_access=false&#10;size=16384&#10;system=system&#10;tag_latency=2&#10;tags=system.cpu.dcache.tags&#10;tgts_per_mshr=20&#10;warmup_percentage=0&#10;write_allocator=Null&#10;write_buffers=8&#10;writeback_clean=false">
<path fill="#bab6ae" stroke="#000000" d="M312,-32C312,-32 474,-32 474,-32 480,-32 486,-38 486,-44 486,-44 486,-110 486,-110 486,-116 480,-122 474,-122 474,-122 312,-122 312,-122 306,-122 300,-116 300,-110 300,-110 300,-44 300,-44 300,-38 306,-32 312,-32"/>
<text text-anchor="middle" x="393" y="-106.8" font-family="Arial" font-size="14.00" fill="#000000">dcache </text>
<text text-anchor="middle" x="393" y="-91.8" font-family="Arial" font-size="14.00" fill="#000000">: Cache</text>
</a>
</g>
</g>
<g id="clust35" class="cluster">
<title>cluster_system_l2bus</title>
<g id="a_clust35"><a xlink:title="clk_domain=system.clk_domain&#10;eventq_index=0&#10;forward_latency=0&#10;frontend_latency=1&#10;header_latency=1&#10;max_outstanding_snoops=512&#10;max_routing_table_size=512&#10;point_of_coherency=false&#10;point_of_unification=true&#10;power_model=&#10;power_state=system.l2bus.power_state&#10;&#13;esponse_latency=1&#10;snoop_filter=system.l2bus.snoop_filter&#10;snoop_response_latency=1&#10;system=system&#10;use_default_range=false&#10;width=32">
<path fill="#6f798c" stroke="#000000" d="M36,-162C36,-162 272,-162 272,-162 278,-162 284,-168 284,-174 284,-174 284,-240 284,-240 284,-246 278,-252 272,-252 272,-252 36,-252 36,-252 30,-252 24,-246 24,-240 24,-240 24,-174 24,-174 24,-168 30,-162 36,-162"/>
<text text-anchor="middle" x="154" y="-236.8" font-family="Arial" font-size="14.00" fill="#000000">l2bus </text>
<text text-anchor="middle" x="154" y="-221.8" font-family="Arial" font-size="14.00" fill="#000000">: L2XBar</text>
</a>
</g>
</g>
<g id="clust38" class="cluster">
<title>cluster_system_l2cache</title>
<g id="a_clust38"><a xlink:title="addr_ranges=0:18446744073709551615&#10;assoc=2&#10;clk_domain=system.clk_domain&#10;clusivity=mostly_incl&#10;compressor=Null&#10;data_latency=10&#10;demand_mshr_reserve=1&#10;eventq_index=0&#10;is_read_only=false&#10;max_miss_count=0&#10;move_contractions=true&#10;mshrs=16&#10;partitioning_manager=Null&#10;power_model=&#10;power_state=system.l2cache.power_state&#10;prefetcher=Null&#10;&#13;eplace_expansions=true&#10;&#13;eplacement_policy=system.l2cache.replacement_policy&#10;&#13;esponse_latency=10&#10;sequential_access=false&#10;size=262144&#10;system=system&#10;tag_latency=10&#10;tags=system.l2cache.tags&#10;tgts_per_mshr=20&#10;warmup_percentage=0&#10;write_allocator=Null&#10;write_buffers=8&#10;writeback_clean=false">
<path fill="#bab6ae" stroke="#000000" d="M111,-292C111,-292 273,-292 273,-292 279,-292 285,-298 285,-304 285,-304 285,-370 285,-370 285,-376 279,-382 273,-382 273,-382 111,-382 111,-382 105,-382 99,-376 99,-370 99,-370 99,-304 99,-304 99,-298 105,-292 111,-292"/>
<text text-anchor="middle" x="192" y="-366.8" font-family="Arial" font-size="14.00" fill="#000000">l2cache </text>
<text text-anchor="middle" x="192" y="-351.8" font-family="Arial" font-size="14.00" fill="#000000">: Cache</text>
</a>
</g>
</g>
<g id="clust44" class="cluster">
<title>cluster_system_l3bus</title>
<g id="a_clust44"><a xlink:title="clk_domain=system.clk_domain&#10;eventq_index=0&#10;forward_latency=0&#10;frontend_latency=1&#10;header_latency=1&#10;max_outstanding_snoops=512&#10;max_routing_table_size=512&#10;point_of_coherency=false&#10;point_of_unification=true&#10;power_model=&#10;power_state=system.l3bus.power_state&#10;&#13;esponse_latency=1&#10;snoop_filter=system.l3bus.snoop_filter&#10;snoop_response_latency=1&#10;system=system&#10;use_default_range=false&#10;width=32">
<path fill="#6f798c" stroke="#000000" d="M73,-422C73,-422 309,-422 309,-422 315,-422 321,-428 321,-434 321,-434 321,-500 321,-500 321,-506 315,-512 309,-512 309,-512 73,-512 73,-512 67,-512 61,-506 61,-500 61,-500 61,-434 61,-434 61,-428 67,-422 73,-422"/>
<text text-anchor="middle" x="191" y="-496.8" font-family="Arial" font-size="14.00" fill="#000000">l3bus </text>
<text text-anchor="middle" x="191" y="-481.8" font-family="Arial" font-size="14.00" fill="#000000">: L2XBar</text>
</a>
</g>
</g>
<g id="clust47" class="cluster">
<title>cluster_system_l3cache</title>
<g id="a_clust47"><a xlink:title="addr_ranges=0:18446744073709551615&#10;assoc=8&#10;clk_domain=system.clk_domain&#10;clusivity=mostly_incl&#10;compressor=Null&#10;data_latency=20&#10;demand_mshr_reserve=1&#10;eventq_index=0&#10;is_read_only=false&#10;max_miss_count=0&#10;move_contractions=true&#10;mshrs=32&#10;partitioning_manager=Null&#10;power_model=&#10;power_state=system.l3cache.power_state&#10;prefetcher=Null&#10;&#13;eplace_expansions=true&#10;&#13;eplacement_policy=system.l3cache.replacement_policy&#10;&#13;esponse_latency=20&#10;sequential_access=false&#10;size=1048576&#10;system=system&#10;tag_latency=20&#10;tags=system.l3cache.tags&#10;tgts_per_mshr=20&#10;warmup_percentage=0&#10;write_allocator=Null&#10;write_buffers=8&#10;writeback_clean=false">
<path fill="#bab6ae" stroke="#000000" d="M36,-552C36,-552 198,-552 198,-552 204,-552 210,-558 210,-564 210,-564 210,-630 210,-630 210,-636 204,-642 198,-642 198,-642 36,-642 36,-642 30,-642 24,-636 24,-630 24,-630 24,-564 24,-564 24,-558 30,-552 36,-552"/>
<text text-anchor="middle" x="117" y="-626.8" font-family="Arial" font-size="14.00" fill="#000000">l3cache </text>
<text text-anchor="middle" x="117" y="-611.8" font-family="Arial" font-size="14.00" fill="#000000">: Cache</text>
</a>
</g>
</g>
<g id="clust53" class="cluster">
<title>cluster_system_membus</title>
<g id="a_clust53"><a xlink:title="clk_domain=system.clk_domain&#10;eventq_index=0&#10;forward_latency=4&#10;frontend_latency=3&#10;header_latency=1&#10;max_outstanding_snoops=512&#10;max_routing_table_size=512&#10;point_of_coherency=true&#10;point_of_unification=true&#10;power_model=&#10;power_state=system.membus.power_state&#10;&#13;esponse_latency=2&#10;snoop_filter=system.membus.snoop_filter&#10;snoop_response_latency=4&#10;system=system&#10;use_default_range=false&#10;width=16">
<path fill="#6f798c" stroke="#000000" d="M54,-682C54,-682 290,-682 290,-682 296,-682 302,-688 302,-694 302,-694 302,-760 302,-760 302,-766 296,-772 290,-772 290,-772 54,-772 54,-772 48,-772 42,-766 42,-760 42,-760 42,-694 42,-694 42,-688 48,-682 54,-682"/>
<text text-anchor="middle" x="172" y="-756.8" font-family="Arial" font-size="14.00" fill="#000000">membus </text>
<text text-anchor="middle" x="172" y="-741.8" font-family="Arial" font-size="14.00" fill="#000000">: SystemXBar</text>
</a>
</g>
</g>
<g id="clust56" class="cluster">
<title>cluster_system_mem_ctrl</title>
<g id="a_clust56"><a xlink:title="clk_domain=system.clk_domain&#10;command_window=10000&#10;disable_sanity_check=false&#10;dram=system.mem_ctrl.dram&#10;eventq_index=0&#10;mem_sched_policy=frfcfs&#10;min_reads_per_switch=16&#10;min_writes_per_switch=16&#10;power_model=&#10;power_state=system.mem_ctrl.power_state&#10;qos_policy=Null&#10;qos_priorities=1&#10;qos_priority_escalation=false&#10;qos_q_policy=fifo&#10;qos_requestors= &#160;&#160;&#160;&#160;&#160;&#160;&#160;&#160;&#160;&#160;&#160;&#160;&#160;&#160;&#10;qos_syncro_scheduler=false&#10;qos_turnaround_policy=Null&#10;static_backend_latency=10000&#10;static_frontend_latency=10000&#10;system=system&#10;write_high_thresh_perc=85&#10;write_low_thresh_perc=50">
<path fill="#bab6ae" stroke="#000000" d="M230,-552C230,-552 283,-552 283,-552 289,-552 295,-558 295,-564 295,-564 295,-630 295,-630 295,-636 289,-642 283,-642 283,-642 230,-642 230,-642 224,-642 218,-636 218,-630 218,-630 218,-564 218,-564 218,-558 224,-552 230,-552"/>
<text text-anchor="middle" x="256.5" y="-626.8" font-family="Arial" font-size="14.00" fill="#000000">mem_ctrl </text>
<text text-anchor="middle" x="256.5" y="-611.8" font-family="Arial" font-size="14.00" fill="#000000">: MemCtrl</text>
</a>
</g>
</g>
<!-- system_system_port -->
<g id="node1" class="node">
<title>system_system_port</title>
<path fill="#b6b8bc" stroke="#000000" d="M137.5,-856C137.5,-856 70.5,-856 70.5,-856 64.5,-856 58.5,-850 58.5,-844 58.5,-844 58.5,-832 58.5,-832 58.5,-826 64.5,-820 70.5,-820 70.5,-820 137.5,-820 137.5,-820 143.5,-820 149.5,-826 149.5,-832 149.5,-832 149.5,-844 149.5,-844 149.5,-850 143.5,-856 137.5,-856"/>
<text text-anchor="middle" x="104" y="-834.3" font-family="Arial" font-size="14.00" fill="#000000">system_port</text>
</g>
<!-- system_membus_cpu_side_ports -->
<g id="node16" class="node">
<title>system_membus_cpu_side_ports</title>
<path fill="#586070" stroke="#000000" d="M146,-726C146,-726 62,-726 62,-726 56,-726 50,-720 50,-714 50,-714 50,-702 50,-702 50,-696 56,-690 62,-690 62,-690 146,-690 146,-690 152,-690 158,-696 158,-702 158,-702 158,-714 158,-714 158,-720 152,-726 146,-726"/>
<text text-anchor="middle" x="104" y="-704.3" font-family="Arial" font-size="14.00" fill="#000000">cpu_side_ports</text>
</g>
<!-- system_system_port&#45;&gt;system_membus_cpu_side_ports -->
<g id="edge1" class="edge">
<title>system_system_port&#45;&gt;system_membus_cpu_side_ports</title>
<path fill="none" stroke="black" d="M104,-819.74C104,-798.36 104,-761.69 104,-736.44"/>
<polygon fill="black" stroke="black" points="107.5,-736.4 104,-726.4 100.5,-736.4 107.5,-736.4"/>
</g>
<!-- system_cpu_icache_port -->
<g id="node2" class="node">
<title>system_cpu_icache_port</title>
<path fill="#959ead" stroke="#000000" d="M667,-206C667,-206 605,-206 605,-206 599,-206 593,-200 593,-194 593,-194 593,-182 593,-182 593,-176 599,-170 605,-170 605,-170 667,-170 667,-170 673,-170 679,-176 679,-182 679,-182 679,-194 679,-194 679,-200 673,-206 667,-206"/>
<text text-anchor="middle" x="636" y="-184.3" font-family="Arial" font-size="14.00" fill="#000000">icache_port</text>
</g>
<!-- system_cpu_icache_cpu_side -->
<g id="node4" class="node">
<title>system_cpu_icache_cpu_side</title>
<path fill="#94918b" stroke="#000000" d="M659.5,-76C659.5,-76 612.5,-76 612.5,-76 606.5,-76 600.5,-70 600.5,-64 600.5,-64 600.5,-52 600.5,-52 600.5,-46 606.5,-40 612.5,-40 612.5,-40 659.5,-40 659.5,-40 665.5,-40 671.5,-46 671.5,-52 671.5,-52 671.5,-64 671.5,-64 671.5,-70 665.5,-76 659.5,-76"/>
<text text-anchor="middle" x="636" y="-54.3" font-family="Arial" font-size="14.00" fill="#000000">cpu_side</text>
</g>
<!-- system_cpu_icache_port&#45;&gt;system_cpu_icache_cpu_side -->
<g id="edge2" class="edge">
<title>system_cpu_icache_port&#45;&gt;system_cpu_icache_cpu_side</title>
<path fill="none" stroke="black" d="M636,-169.74C636,-148.36 636,-111.69 636,-86.44"/>
<polygon fill="black" stroke="black" points="639.5,-86.4 636,-76.4 632.5,-86.4 639.5,-86.4"/>
</g>
<!-- system_cpu_dcache_port -->
<g id="node3" class="node">
<title>system_cpu_dcache_port</title>
<path fill="#959ead" stroke="#000000" d="M475.5,-206C475.5,-206 408.5,-206 408.5,-206 402.5,-206 396.5,-200 396.5,-194 396.5,-194 396.5,-182 396.5,-182 396.5,-176 402.5,-170 408.5,-170 408.5,-170 475.5,-170 475.5,-170 481.5,-170 487.5,-176 487.5,-182 487.5,-182 487.5,-194 487.5,-194 487.5,-200 481.5,-206 475.5,-206"/>
<text text-anchor="middle" x="442" y="-184.3" font-family="Arial" font-size="14.00" fill="#000000">dcache_port</text>
</g>
<!-- system_cpu_dcache_cpu_side -->
<g id="node6" class="node">
<title>system_cpu_dcache_cpu_side</title>
<path fill="#94918b" stroke="#000000" d="M465.5,-76C465.5,-76 418.5,-76 418.5,-76 412.5,-76 406.5,-70 406.5,-64 406.5,-64 406.5,-52 406.5,-52 406.5,-46 412.5,-40 418.5,-40 418.5,-40 465.5,-40 465.5,-40 471.5,-40 477.5,-46 477.5,-52 477.5,-52 477.5,-64 477.5,-64 477.5,-70 471.5,-76 465.5,-76"/>
<text text-anchor="middle" x="442" y="-54.3" font-family="Arial" font-size="14.00" fill="#000000">cpu_side</text>
</g>
<!-- system_cpu_dcache_port&#45;&gt;system_cpu_dcache_cpu_side -->
<g id="edge3" class="edge">
<title>system_cpu_dcache_port&#45;&gt;system_cpu_dcache_cpu_side</title>
<path fill="none" stroke="black" d="M442,-169.74C442,-148.36 442,-111.69 442,-86.44"/>
<polygon fill="black" stroke="black" points="445.5,-86.4 442,-76.4 438.5,-86.4 445.5,-86.4"/>
</g>
<!-- system_cpu_icache_mem_side -->
<g id="node5" class="node">
<title>system_cpu_icache_mem_side</title>
<path fill="#94918b" stroke="#000000" d="M570,-76C570,-76 514,-76 514,-76 508,-76 502,-70 502,-64 502,-64 502,-52 502,-52 502,-46 508,-40 514,-40 514,-40 570,-40 570,-40 576,-40 582,-46 582,-52 582,-52 582,-64 582,-64 582,-70 576,-76 570,-76"/>
<text text-anchor="middle" x="542" y="-54.3" font-family="Arial" font-size="14.00" fill="#000000">mem_side</text>
</g>
<!-- system_cpu_dcache_mem_side -->
<g id="node7" class="node">
<title>system_cpu_dcache_mem_side</title>
<path fill="#94918b" stroke="#000000" d="M376,-76C376,-76 320,-76 320,-76 314,-76 308,-70 308,-64 308,-64 308,-52 308,-52 308,-46 314,-40 320,-40 320,-40 376,-40 376,-40 382,-40 388,-46 388,-52 388,-52 388,-64 388,-64 388,-70 382,-76 376,-76"/>
<text text-anchor="middle" x="348" y="-54.3" font-family="Arial" font-size="14.00" fill="#000000">mem_side</text>
</g>
<!-- system_l2bus_cpu_side_ports -->
<g id="node8" class="node">
<title>system_l2bus_cpu_side_ports</title>
<path fill="#586070" stroke="#000000" d="M264,-206C264,-206 180,-206 180,-206 174,-206 168,-200 168,-194 168,-194 168,-182 168,-182 168,-176 174,-170 180,-170 180,-170 264,-170 264,-170 270,-170 276,-176 276,-182 276,-182 276,-194 276,-194 276,-200 270,-206 264,-206"/>
<text text-anchor="middle" x="222" y="-184.3" font-family="Arial" font-size="14.00" fill="#000000">cpu_side_ports</text>
</g>
<!-- system_l2bus_cpu_side_ports&#45;&gt;system_cpu_icache_mem_side -->
<g id="edge4" class="edge">
<title>system_l2bus_cpu_side_ports&#45;&gt;system_cpu_icache_mem_side</title>
<path fill="none" stroke="black" d="M273.69,-166.49C278.49,-164.87 283.31,-163.34 288,-162 375.99,-136.81 411.41,-168.91 490,-122 508.51,-110.95 523.37,-90.81 532.39,-76.27"/>
<polygon fill="black" stroke="black" points="272.17,-163.32 263.9,-169.94 274.49,-169.92 272.17,-163.32"/>
</g>
<!-- system_l2bus_cpu_side_ports&#45;&gt;system_cpu_dcache_mem_side -->
<g id="edge5" class="edge">
<title>system_l2bus_cpu_side_ports&#45;&gt;system_cpu_dcache_mem_side</title>
<path fill="none" stroke="black" d="M246.24,-162.37C271.06,-137.16 309.01,-98.6 330.87,-76.4"/>
<polygon fill="black" stroke="black" points="243.51,-160.16 238.99,-169.74 248.5,-165.07 243.51,-160.16"/>
</g>
<!-- system_l2bus_mem_side_ports -->
<g id="node9" class="node">
<title>system_l2bus_mem_side_ports</title>
<path fill="#586070" stroke="#000000" d="M138,-206C138,-206 44,-206 44,-206 38,-206 32,-200 32,-194 32,-194 32,-182 32,-182 32,-176 38,-170 44,-170 44,-170 138,-170 138,-170 144,-170 150,-176 150,-182 150,-182 150,-194 150,-194 150,-200 144,-206 138,-206"/>
<text text-anchor="middle" x="91" y="-184.3" font-family="Arial" font-size="14.00" fill="#000000">mem_side_ports</text>
</g>
<!-- system_l2cache_cpu_side -->
<g id="node10" class="node">
<title>system_l2cache_cpu_side</title>
<path fill="#94918b" stroke="#000000" d="M264.5,-336C264.5,-336 217.5,-336 217.5,-336 211.5,-336 205.5,-330 205.5,-324 205.5,-324 205.5,-312 205.5,-312 205.5,-306 211.5,-300 217.5,-300 217.5,-300 264.5,-300 264.5,-300 270.5,-300 276.5,-306 276.5,-312 276.5,-312 276.5,-324 276.5,-324 276.5,-330 270.5,-336 264.5,-336"/>
<text text-anchor="middle" x="241" y="-314.3" font-family="Arial" font-size="14.00" fill="#000000">cpu_side</text>
</g>
<!-- system_l2cache_cpu_side&#45;&gt;system_l2bus_mem_side_ports -->
<g id="edge6" class="edge">
<title>system_l2cache_cpu_side&#45;&gt;system_l2bus_mem_side_ports</title>
<path fill="none" stroke="black" d="M210.1,-293.41C194.54,-281.31 175.52,-266.17 159,-252 141.53,-237.02 122.36,-219.12 108.84,-206.23"/>
<polygon fill="black" stroke="black" points="208.3,-296.45 218.35,-299.8 212.58,-290.91 208.3,-296.45"/>
</g>
<!-- system_l2cache_mem_side -->
<g id="node11" class="node">
<title>system_l2cache_mem_side</title>
<path fill="#94918b" stroke="#000000" d="M175,-336C175,-336 119,-336 119,-336 113,-336 107,-330 107,-324 107,-324 107,-312 107,-312 107,-306 113,-300 119,-300 119,-300 175,-300 175,-300 181,-300 187,-306 187,-312 187,-312 187,-324 187,-324 187,-330 181,-336 175,-336"/>
<text text-anchor="middle" x="147" y="-314.3" font-family="Arial" font-size="14.00" fill="#000000">mem_side</text>
</g>
<!-- system_l3bus_cpu_side_ports -->
<g id="node12" class="node">
<title>system_l3bus_cpu_side_ports</title>
<path fill="#586070" stroke="#000000" d="M301,-466C301,-466 217,-466 217,-466 211,-466 205,-460 205,-454 205,-454 205,-442 205,-442 205,-436 211,-430 217,-430 217,-430 301,-430 301,-430 307,-430 313,-436 313,-442 313,-442 313,-454 313,-454 313,-460 307,-466 301,-466"/>
<text text-anchor="middle" x="259" y="-444.3" font-family="Arial" font-size="14.00" fill="#000000">cpu_side_ports</text>
</g>
<!-- system_l3bus_cpu_side_ports&#45;&gt;system_l2cache_mem_side -->
<g id="edge7" class="edge">
<title>system_l3bus_cpu_side_ports&#45;&gt;system_l2cache_mem_side</title>
<path fill="none" stroke="black" d="M234.46,-422.33C222.84,-410.39 208.93,-395.7 197,-382 183.89,-366.94 169.82,-349.05 159.96,-336.19"/>
<polygon fill="black" stroke="black" points="232.22,-425.05 241.72,-429.75 237.22,-420.15 232.22,-425.05"/>
</g>
<!-- system_l3bus_mem_side_ports -->
<g id="node13" class="node">
<title>system_l3bus_mem_side_ports</title>
<path fill="#586070" stroke="#000000" d="M175,-466C175,-466 81,-466 81,-466 75,-466 69,-460 69,-454 69,-454 69,-442 69,-442 69,-436 75,-430 81,-430 81,-430 175,-430 175,-430 181,-430 187,-436 187,-442 187,-442 187,-454 187,-454 187,-460 181,-466 175,-466"/>
<text text-anchor="middle" x="128" y="-444.3" font-family="Arial" font-size="14.00" fill="#000000">mem_side_ports</text>
</g>
<!-- system_l3cache_cpu_side -->
<g id="node14" class="node">
<title>system_l3cache_cpu_side</title>
<path fill="#94918b" stroke="#000000" d="M189.5,-596C189.5,-596 142.5,-596 142.5,-596 136.5,-596 130.5,-590 130.5,-584 130.5,-584 130.5,-572 130.5,-572 130.5,-566 136.5,-560 142.5,-560 142.5,-560 189.5,-560 189.5,-560 195.5,-560 201.5,-566 201.5,-572 201.5,-572 201.5,-584 201.5,-584 201.5,-590 195.5,-596 189.5,-596"/>
<text text-anchor="middle" x="166" y="-574.3" font-family="Arial" font-size="14.00" fill="#000000">cpu_side</text>
</g>
<!-- system_l3cache_cpu_side&#45;&gt;system_l3bus_mem_side_ports -->
<g id="edge8" class="edge">
<title>system_l3cache_cpu_side&#45;&gt;system_l3bus_mem_side_ports</title>
<path fill="none" stroke="black" d="M158,-550.05C150.52,-524.84 139.56,-487.93 133.17,-466.4"/>
<polygon fill="black" stroke="black" points="154.67,-551.15 160.88,-559.74 161.38,-549.15 154.67,-551.15"/>
</g>
<!-- system_l3cache_mem_side -->
<g id="node15" class="node">
<title>system_l3cache_mem_side</title>
<path fill="#94918b" stroke="#000000" d="M100,-596C100,-596 44,-596 44,-596 38,-596 32,-590 32,-584 32,-584 32,-572 32,-572 32,-566 38,-560 44,-560 44,-560 100,-560 100,-560 106,-560 112,-566 112,-572 112,-572 112,-584 112,-584 112,-590 106,-596 100,-596"/>
<text text-anchor="middle" x="72" y="-574.3" font-family="Arial" font-size="14.00" fill="#000000">mem_side</text>
</g>
<!-- system_membus_cpu_side_ports&#45;&gt;system_l3cache_mem_side -->
<g id="edge9" class="edge">
<title>system_membus_cpu_side_ports&#45;&gt;system_l3cache_mem_side</title>
<path fill="none" stroke="black" d="M97.18,-679.72C90.88,-654.52 81.71,-617.84 76.35,-596.4"/>
<polygon fill="black" stroke="black" points="93.86,-680.88 99.68,-689.74 100.65,-679.19 93.86,-680.88"/>
</g>
<!-- system_membus_mem_side_ports -->
<g id="node17" class="node">
<title>system_membus_mem_side_ports</title>
<path fill="#586070" stroke="#000000" d="M282,-726C282,-726 188,-726 188,-726 182,-726 176,-720 176,-714 176,-714 176,-702 176,-702 176,-696 182,-690 188,-690 188,-690 282,-690 282,-690 288,-690 294,-696 294,-702 294,-702 294,-714 294,-714 294,-720 288,-726 282,-726"/>
<text text-anchor="middle" x="235" y="-704.3" font-family="Arial" font-size="14.00" fill="#000000">mem_side_ports</text>
</g>
<!-- system_mem_ctrl_port -->
<g id="node18" class="node">
<title>system_mem_ctrl_port</title>
<path fill="#94918b" stroke="#000000" d="M268,-596C268,-596 238,-596 238,-596 232,-596 226,-590 226,-584 226,-584 226,-572 226,-572 226,-566 232,-560 238,-560 238,-560 268,-560 268,-560 274,-560 280,-566 280,-572 280,-572 280,-584 280,-584 280,-590 274,-596 268,-596"/>
<text text-anchor="middle" x="253" y="-574.3" font-family="Arial" font-size="14.00" fill="#000000">port</text>
</g>
<!-- system_membus_mem_side_ports&#45;&gt;system_mem_ctrl_port -->
<g id="edge10" class="edge">
<title>system_membus_mem_side_ports&#45;&gt;system_mem_ctrl_port</title>
<path fill="none" stroke="black" d="M237.43,-689.74C240.43,-668.36 245.59,-631.69 249.14,-606.44"/>
<polygon fill="black" stroke="black" points="252.63,-606.79 250.55,-596.4 245.69,-605.81 252.63,-606.79"/>
</g>
</g>
</svg>
